<svg width="24" height="24" viewBox="0 0 24 24" fill="none" xmlns="http://www.w3.org/2000/svg">
  <circle cx="12" cy="12" r="10" stroke="#f59e0b" stroke-width="2" stroke-linecap="round" stroke-linejoin="round"/>
  <path d="M12 6V18" stroke="#f59e0b" stroke-width="2" stroke-linecap="round" stroke-linejoin="round"/>
  <path d="M15 9H10C9.46957 9 8.96086 9.21071 8.58579 9.58579C8.21071 9.96086 8 10.4696 8 11C8 11.5304 8.21071 12.0391 8.58579 12.4142C8.96086 12.7893 9.46957 13 10 13H14C14.5304 13 15.0391 13.2107 15.4142 13.5858C15.7893 13.9609 16 14.4696 16 15C16 15.5304 15.7893 16.0391 15.4142 16.4142C15.0391 16.7893 14.5304 17 14 17H8" stroke="#f59e0b" stroke-width="2" stroke-linecap="round" stroke-linejoin="round"/>
</svg>
