<svg width="24" height="24" viewBox="0 0 24 24" fill="none" xmlns="http://www.w3.org/2000/svg">
  <path d="M8.5 14.5C8.5 14.5 9 12 11 12C13 12 13.5 13.5 15 13.5C16.5 13.5 17 12 17 12C17 15 15.5 18 12 18C8.5 18 7 15 7 12C7 9 8.5 6 12 2C15.5 6 17 9 17 12" stroke="#ef4444" stroke-width="2" stroke-linecap="round" stroke-linejoin="round"/>
  <path d="M12 2C12 2 10 5 10 8C10 9.06087 10.4214 10.0783 11.1716 10.8284C11.9217 11.5786 12.9391 12 14 12" stroke="#ef4444" stroke-width="2" stroke-linecap="round" stroke-linejoin="round"/>
</svg>
