<svg width="24" height="24" viewBox="0 0 24 24" fill="none" xmlns="http://www.w3.org/2000/svg">
  <path d="M15 14C16.0609 13.0783 16.8586 11.8609 17.2939 10.4968C17.7293 9.13271 17.7844 7.67634 17.4529 6.28491C17.1215 4.89348 16.4164 3.61769 15.4158 2.60252C14.4152 1.58734 13.1566 0.869885 11.7752 0.523383C10.3938 0.17688 8.94221 0.214339 7.58049 0.632411C6.21878 1.05048 4.99688 1.83431 4.04922 2.90073C3.10156 3.96716 2.46211 5.27639 2.20368 6.68218C1.94524 8.08797 2.07701 9.53724 2.58499 10.8745C3.09298 12.2117 3.95946 13.3866 5.09 14.27V16C5.09 16.5304 5.30071 17.0391 5.67578 17.4142C6.05086 17.7893 6.55956 18 7.09 18H17C17.5304 18 18.0391 17.7893 18.4142 17.4142C18.7893 17.0391 19 16.5304 19 16V14.2C18.3408 13.6861 17.8194 13.0235 17.4836 12.2698C17.1478 11.5161 16.9074 10.6909 16.7796 9.84365" stroke="#f59e0b" stroke-width="2" stroke-linecap="round" stroke-linejoin="round"/>
  <path d="M9 21H15" stroke="#f59e0b" stroke-width="2" stroke-linecap="round" stroke-linejoin="round"/>
  <path d="M12 3V6" stroke="#f59e0b" stroke-width="2" stroke-linecap="round" stroke-linejoin="round"/>
</svg>
